<?xml version="1.0" encoding="utf-8"?>
<svg viewBox="0 0 512 60" xmlns="http://www.w3.org/2000/svg">
  <defs>
    <radialGradient gradientUnits="userSpaceOnUse" cx="133.995" cy="91.205" r="52.862" id="gradient-0" spreadMethod="pad" gradientTransform="matrix(0.33735, 0.00171, -0.001919, 0.378527, 33.62513, 8.036016)">
      <stop offset="0" style="stop-color: rgb(255, 251, 0);"/>
      <stop offset="1" style="stop-color: rgb(239, 205, 13);"/>
    </radialGradient>
  </defs>
  <path d="M -7.031 77 L -7.031 24.777 C -0.038 19.906 18.348 22.8 23.219 29.793 C 25.126 26.79 27.582 26.243 30.585 28.151 C 42.681 22.852 51.378 26.252 56.677 38.349 C 64.761 31.417 72.268 31.993 79.2 40.076 C 86.622 34.504 93.119 35.43 98.692 42.853 C 103.554 36.005 109.407 35.012 116.255 39.874 C 117.366 36.961 119.378 36.061 122.291 37.173 C 124.816 32.874 128.227 31.987 132.526 34.511 C 135.172 31.908 137.797 31.929 140.401 34.575 C 146.261 30.183 151.386 30.917 155.778 36.776 C 163.472 33.59 168.913 35.844 172.099 43.538 C 178.516 39.077 183.955 40.057 188.415 46.474 C 191.529 43.665 194.491 43.818 197.299 46.933 C 199.283 44.838 201.322 44.781 203.418 46.766 C 207.103 38.4 213.126 36.06 221.492 39.744 C 224.136 33.602 228.53 31.853 234.672 34.498 C 239.288 29.08 244.305 28.678 249.723 33.295 C 256.912 24.497 264.905 23.692 273.703 30.88 C 281.16 24.392 288.132 24.876 294.621 32.332 C 299.572 29.281 303.572 30.231 306.624 35.181 C 313.685 28.038 320.789 27.998 327.931 35.061 C 331.205 31.009 334.867 30.62 338.917 33.894 C 341.715 32.038 344.042 32.508 345.898 35.306 C 347.726 34.509 349.038 35.024 349.836 36.853 C 357.375 33.317 362.913 35.321 366.447 42.861 C 368.282 41.255 370.003 41.37 371.609 43.204 C 373.897 40.554 376.368 40.374 379.019 42.663 C 381.935 39.265 385.093 39.024 388.49 41.94 C 391.283 39.547 393.877 39.747 396.271 42.539 C 399.901 39.747 403.111 40.166 405.903 43.796 C 408.702 39.661 412.168 38.994 416.303 41.792 C 421.067 31.182 428.755 28.258 439.366 33.022 C 443.958 29.263 448.134 29.679 451.894 34.273 C 459.866 25.078 468.449 24.466 477.643 32.439 C 480.804 26.497 485.355 25.106 491.296 28.266 C 502.899 22.097 511.786 24.814 517.956 36.417 C 524.595 32.865 529.691 34.409 533.244 41.048 C 539.645 34.69 560.455 30.528 566.813 36.928 L 566.813 77" fill="rgb(225,225,225)" style="">
    <animateTransform type="translate" additive="sum" attributeName="transform" values="0 0;-20 0;0 0" begin="0s" dur="8s" repeatCount="indefinite" calcMode="spline" keyTimes="0; 0.49951; 1" keySplines="0.42 0 0.58 1; 0.42 0 0.58 1"/>
  </path>
  <path id="path-2" d="M 61.261 35.898 C 61.454 35.301 61.925 34.834 62.524 34.648 L 67.296 33.158 L 67.239 28.183 C 67.239 28.171 67.239 28.159 67.239 28.148 C 67.235 27.524 67.532 26.938 68.037 26.571 C 68.544 26.202 69.199 26.103 69.793 26.304 L 70.022 26.381 C 70.027 26.391 70.034 26.4 70.04 26.41 L 74.529 27.925 L 77.421 23.848 C 77.783 23.337 78.373 23.033 79 23.033 C 79.626 23.033 80.215 23.337 80.578 23.848 L 83.469 27.925 L 88.206 26.326 C 88.8 26.126 89.454 26.227 89.962 26.595 C 90.469 26.963 90.766 27.555 90.76 28.183 L 90.703 33.181 L 95.475 34.67 C 96.073 34.858 96.544 35.323 96.738 35.92 C 96.932 36.516 96.824 37.17 96.45 37.674 L 93.465 41.684 L 95.215 44.037 C 95.222 44.035 95.225 44.035 95.231 44.033 L 96.45 45.671 C 96.703 46.011 96.834 46.419 96.831 46.831 C 96.835 47.038 96.804 47.246 96.738 47.447 C 96.544 48.043 96.073 48.511 95.475 48.696 L 90.703 50.187 L 90.76 55.163 C 90.76 55.174 90.76 55.185 90.76 55.196 C 90.764 55.82 90.467 56.406 89.962 56.773 C 89.454 57.142 88.8 57.241 88.206 57.041 L 87.976 56.964 C 87.971 56.954 87.965 56.944 87.959 56.934 L 83.469 55.42 L 80.578 59.497 C 80.215 60.008 79.626 60.312 79 60.312 C 78.372 60.312 77.783 60.008 77.421 59.497 L 74.529 55.42 L 69.793 57.017 C 69.199 57.219 68.544 57.119 68.037 56.75 C 67.529 56.382 67.231 55.789 67.239 55.163 L 67.296 50.164 L 62.524 48.675 C 61.925 48.486 61.454 48.021 61.261 47.424 C 61.066 46.828 61.175 46.175 61.549 45.671 L 64.533 41.661 L 62.781 39.308 C 62.777 39.309 62.772 39.31 62.767 39.311 L 61.549 37.674 C 61.297 37.334 61.164 36.926 61.167 36.512 C 61.164 36.306 61.196 36.098 61.261 35.898 Z" style="fill: url('#gradient-0'); transform-origin: 79px 41.673px;">
    <animateTransform type="rotate" additive="sum" attributeName="transform" values="0;180;0" dur="10s" keyTimes="0; 0.5; 1" repeatCount="indefinite" calcMode="spline" keySplines="0.42 0 0.58 1; 0.42 0 0.58 1" fill="freeze"/>
  </path>
  <path d="M -50.031 77 L -50.031 40.314 C -44.924 27.679 -6.161 26.387 4.537 39.463 C 10.387 36.464 14.811 37.889 17.809 43.737 C 28.539 37.758 36.894 40.132 42.874 50.861 C 53.859 38.978 65.293 38.528 77.178 49.513 C 80.566 43.58 85.228 42.307 91.161 45.696 C 102.663 36.086 113.218 37.033 122.827 48.534 C 131.2 44.672 137.318 46.927 141.18 55.299 C 146.419 49.962 151.707 49.912 157.045 55.151 C 163.311 44.197 171.92 41.853 182.874 48.118 C 185.751 44.428 189.035 44.022 192.726 46.9 C 194.517 44.971 196.377 44.903 198.306 46.694 C 206.321 34.992 216.179 33.15 227.88 41.166 C 229.822 38.819 231.966 38.617 234.313 40.559 C 247.164 30.155 258.79 31.379 269.194 44.23 C 272.977 41.692 276.138 42.313 278.676 46.097 C 288.601 35.497 298.863 35.159 309.462 45.084 C 321.826 35.988 332.556 37.622 341.652 49.984 C 350.742 41.454 359.553 41.735 368.083 50.827 C 372.228 45.223 377.103 44.495 382.705 48.639 C 384.342 44.838 387.061 43.754 390.863 45.391 C 395.08 39.196 400.287 38.205 406.483 42.422 C 410.503 39.455 413.996 39.981 416.964 44.001 C 420.258 41.452 423.18 41.824 425.729 45.118 C 433.185 34.568 442.188 33.022 452.738 40.479 C 454.679 38.611 456.585 38.647 458.453 40.589 C 471.772 31.337 483.059 33.372 492.31 46.692 C 500.799 38.422 515.543 44.155 523.813 52.643 L 523.813 77" fill="rgb(240,240,240)" style="">
    <animateTransform type="translate" additive="sum" attributeName="transform" values="0 0;16 0;0 0" dur="10s" keyTimes="0; 0.49952; 1" calcMode="spline" keySplines="0.42 0 0.58 1; 0.42 0 0.58 1" repeatCount="indefinite"/>
  </path>
  <path d="M -37.031 70 L -36.823 42.211 C -30.595 37.893 -25.321 38.849 -21.002 45.077 C -16.643 40.543 -12.196 40.454 -7.662 44.814 C -3.723 41.279 0.013 41.482 3.548 45.421 C 8.689 41.161 13.389 41.601 17.649 46.743 C 32.705 36.587 45.311 39.037 55.468 54.093 C 66.385 45.925 75.927 47.298 84.097 58.216 C 86.464 55.864 88.823 55.871 91.174 58.238 C 101.941 46.923 112.982 46.649 124.296 57.416 C 136.031 42.48 149.367 40.878 164.304 52.614 C 173.824 43.086 183.347 43.082 192.875 52.601 C 199.698 43.332 207.743 42.109 217.012 48.933 C 230.819 35.428 244.473 35.577 257.979 49.384 C 260.684 47.743 262.857 48.276 264.497 50.98 C 272.708 44.728 279.94 45.707 286.193 53.917 C 294.848 45.344 303.462 45.385 312.035 54.043 C 318.327 45.108 325.94 43.788 334.873 50.079 C 337.621 46.525 340.773 46.125 344.325 48.874 C 349.057 44.983 353.369 45.403 357.26 50.133 C 366.498 44.094 374.138 45.693 380.178 54.933 C 390.029 45.037 399.901 45.014 409.797 54.865 C 421.903 39.044 435.866 37.186 451.687 49.293 C 460.162 41.118 468.486 41.27 476.66 49.745 C 479.262 46.613 482.129 46.349 485.261 48.953 C 492.516 41.014 500.113 40.673 508.051 47.929 C 520.113 40.845 529.688 43.333 536.772 55.396 L 536.813 70" style="fill: rgb(254, 254, 254);">
    <animateTransform type="translate" additive="sum" attributeName="transform" values="-5 0;30 0;-5 0" dur="8s" keyTimes="0; 0.49986; 1" calcMode="spline" keySplines="0.42 0 0.58 1; 0.42 0 0.58 1" repeatCount="indefinite"/>
  </path>
</svg>