<?xml version="1.0" encoding="utf-8"?>
<svg viewBox="0 0 512 45" xmlns="http://www.w3.org/2000/svg">
  <defs>
    <filter id="shadowTop" width="200%" height="200%" y="50%">
      <feGaussianBlur in="SourceAlpha" stdDeviation="4" result="blur"/>
      <feOffset in="blur" dx="0" dy="-4" result="offsetBlur"/>
      <feMerge>
        <feMergeNode in="offsetBlur"/>
        <feMergeNode in="SourceGraphic"/>
      </feMerge>
    </filter>
    <filter id="shadowWave" width="200%" height="200%" y="-50%">
      <feGaussianBlur in="SourceAlpha" stdDeviation="4" result="blur"/>
      <feOffset in="blur" dx="0" dy="4" result="offsetBlur"/>
      <feMerge>
        <feMergeNode in="offsetBlur"/>
        <feMergeNode in="SourceGraphic"/>
      </feMerge>
    </filter>

  </defs>
  <path d="M 0 0.689 L 17.265 1.821 C 29.497 2.362 48.925 3.71 73.273 3.995 C 97.679 4.28 121.913 3.824 146.319 3.339 C 170.666 2.854 195.128 2.398 219.477 3.139 C 243.883 3.909 268.118 5.906 292.523 5.963 C 316.872 5.993 341.334 4.109 365.681 2.996 C 390.087 1.913 414.321 1.628 438.727 2.425 C 463.075 3.253 470.756 3.406 498.256 2.544 L 512 2.153 L 512 -6 L 0 -6 L 0 0.689 Z" style="fill: rgb(255, 255, 255);" filter="url(#shadowTop)"/>
  <path d="M 0 5.015 L 17.265 6.835 C 29.497 7.704 48.925 9.866 73.273 10.324 C 97.679 10.782 121.913 10.049 146.319 9.27 C 170.666 8.493 195.128 7.759 219.477 8.95 C 243.883 10.186 268.118 13.394 292.523 13.485 C 316.872 13.53 341.334 10.508 365.681 8.721 C 390.087 6.98 414.321 6.523 438.727 7.804 C 463.075 9.134 470.756 9.38 498.256 7.995 L 512 7.365 L 512 45 L 499.769 45 C 487.537 45 463.075 45 438.727 45 C 414.321 45 390.087 45 365.681 45 C 341.334 45 316.872 45 292.523 45 C 268.118 45 243.883 45 219.477 45 C 195.128 45 170.666 45 146.319 45 C 121.913 45 97.679 45 73.273 45 C 48.925 45 24.463 45 12.231 45 L 0 45 L 0 5.015 Z" fill="#008cff" style="" filter="url(#shadowWave)"/>
  <path d="M 0 15.225 L 12.231 16.738 C 24.463 18.294 48.925 21.318 73.273 21.639 C 97.679 21.96 121.913 19.485 146.319 17.425 C 170.666 15.362 195.128 13.714 219.477 12.935 C 243.883 12.156 268.118 12.339 292.523 14.218 C 316.872 16.143 341.334 19.806 365.681 20.721 C 390.087 21.639 414.321 19.806 438.727 17.607 C 463.075 15.362 468.43 12.541 484.165 13.573 L 512 16.62 L 512 45 L 499.769 45 C 487.537 45 463.075 45 438.727 45 C 414.321 45 390.087 45 365.681 45 C 341.334 45 316.872 45 292.523 45 C 268.118 45 243.883 45 219.477 45 C 195.128 45 170.666 45 146.319 45 C 121.913 45 97.679 45 73.273 45 C 48.925 45 24.463 45 12.231 45 L 0 45 L 0 15.225 Z" fill="#1795fe" style=""/>
  <path d="M 0 24.845 L 12.231 24.845 C 24.463 24.845 48.925 24.845 73.273 23.607 C 97.679 22.418 121.913 19.944 146.319 19.944 C 170.666 19.944 195.128 22.418 219.477 23.838 C 243.883 25.303 268.118 25.761 292.523 24.845 C 316.872 23.929 341.334 21.639 365.681 21.639 C 390.087 21.639 414.321 23.929 438.727 25.394 C 463.075 26.815 487.537 27.456 499.769 27.73 L 512 28.051 L 512 45 L 499.769 45 C 487.537 45 463.075 45 438.727 45 C 414.321 45 390.087 45 365.681 45 C 341.334 45 316.872 45 292.523 45 C 268.118 45 243.883 45 219.477 45 C 195.128 45 170.666 45 146.319 45 C 121.913 45 97.679 45 73.273 45 C 48.925 45 24.463 45 12.231 45 L 0 45 L 0 24.845 Z" fill="#2b9dfc" style=""/>
  <path d="M 0 32.174 L 12.231 31.12 C 24.463 30.021 48.925 27.914 73.273 28.189 C 97.679 28.51 121.913 31.258 146.319 31.029 C 170.666 30.8 195.128 27.593 219.477 26.769 C 243.883 25.899 268.118 27.456 292.523 28.28 C 316.872 29.105 341.334 29.288 365.681 30.113 C 390.087 30.938 414.321 32.494 438.727 32.403 C 463.075 32.311 487.537 30.663 499.769 29.793 L 512 28.968 L 512 45 L 499.769 45 C 487.537 45 463.075 45 438.727 45 C 414.321 45 390.087 45 365.681 45 C 341.334 45 316.872 45 292.523 45 C 268.118 45 243.883 45 219.477 45 C 195.128 45 170.666 45 146.319 45 C 121.913 45 97.679 45 73.273 45 C 48.925 45 24.463 45 12.231 45 L 0 45 L 0 32.174 Z" fill="#3da4fa" style=""/>
  <path d="M 0 39.961 L 12.231 39.136 C 24.463 38.266 48.925 36.617 73.273 35.244 C 97.679 33.869 121.913 32.77 146.319 32.311 C 170.666 31.853 195.128 32.036 219.477 32.174 C 243.883 32.311 268.118 32.494 292.523 33.685 C 316.872 34.923 341.334 37.213 365.681 38.038 C 390.087 38.908 414.321 38.266 438.727 37.808 C 463.075 37.351 487.537 37.075 499.769 36.893 L 512 36.754 L 512 45 L 499.769 45 C 487.537 45 463.075 45 438.727 45 C 414.321 45 390.087 45 365.681 45 C 341.334 45 316.872 45 292.523 45 C 268.118 45 243.883 45 219.477 45 C 195.128 45 170.666 45 146.319 45 C 121.913 45 97.679 45 73.273 45 C 48.925 45 24.463 45 12.231 45 L 0 45 L 0 39.961 Z" fill="#4facf7" style=""/>
</svg>